<?xml version="1.0" encoding="utf-8"?>
<!-- Generator: Adobe Illustrator 22.0.1, SVG Export Plug-In . SVG Version: 6.00 Build 0)  -->
<svg version="1.1" id="Layer_1" xmlns="http://www.w3.org/2000/svg" xmlns:xlink="http://www.w3.org/1999/xlink" x="0px" y="0px"
	 viewBox="0 0 900 900" style="enable-background:new 0 0 900 900;" xml:space="preserve">
<style type="text/css">
	.st0{fill:#FFFFFF;}
	.st1{fill:url(#SVGID_1_);}
	.st2{fill:url(#SVGID_2_);}
	.st3{fill:url(#SVGID_3_);}
	.st4{fill:#8D51A0;}
	.st5{fill:#DF4097;}
	.st6{fill:#EE3179;}
	.st7{fill:#FFC842;}
	.st8{fill:#F6884E;}
</style>
<g>
	<polygon points="-1049.7,-524.6 -1049.2,-188.6 -894.7,-32.1 -894.7,-368.1 	"/>
	<polygon points="-702.2,-367.6 -702.2,-32.6 -780.2,46.9 -858.2,-32.6 -858.2,-367.6 -780.2,-446.6 	"/>
	<g>
		<polygon points="-510.7,-524.6 -511.2,-188.6 -665.7,-32.1 -665.7,-368.1 		"/>
	</g>
</g>
<g>
	<polygon class="st0" points="-510.6,-479 -510.1,-143 -355.6,13.5 -355.6,-322.5 	"/>
	<polygon class="st0" points="-163.1,-322 -163.1,13 -241.1,92.5 -319.1,13 -319.1,-322 -241.1,-401 	"/>
	<g>
		<polygon class="st0" points="28.4,-479 27.9,-143 -126.6,13.5 -126.6,-322.5 		"/>
	</g>
</g>
<g>
	<polygon class="st0" points="173.5,171.1 174,507.1 328.5,663.6 328.5,327.6 	"/>
	<polygon class="st0" points="521,328.1 521,663.1 443,742.6 365,663.1 365,328.1 443,249.1 	"/>
	<g>
		<polygon class="st0" points="712.5,171.1 712,507.1 557.5,663.6 557.5,327.6 		"/>
	</g>
</g>
<g>
	<linearGradient id="SVGID_1_" gradientUnits="userSpaceOnUse" x1="-357.9692" y1="-506.5009" x2="-357.9692" y2="-980.9496">
		<stop  offset="0" style="stop-color:#8D51A0"/>
		<stop  offset="0.25" style="stop-color:#DF4097"/>
		<stop  offset="0.5" style="stop-color:#EE3179"/>
		<stop  offset="0.75" style="stop-color:#F6884E"/>
		<stop  offset="1" style="stop-color:#FFC842"/>
	</linearGradient>
	<polygon class="st1" points="-435.5,-1066.9 -435,-730.9 -280.5,-574.4 -280.5,-910.4 	"/>
	<linearGradient id="SVGID_2_" gradientUnits="userSpaceOnUse" x1="-165.9693" y1="-505.3185" x2="-165.9693" y2="-977.871">
		<stop  offset="0" style="stop-color:#8D51A0"/>
		<stop  offset="0.25" style="stop-color:#DF4097"/>
		<stop  offset="0.5" style="stop-color:#EE3179"/>
		<stop  offset="0.75" style="stop-color:#F6884E"/>
		<stop  offset="1" style="stop-color:#FFC842"/>
	</linearGradient>
	<polygon class="st2" points="-88,-909.9 -88,-574.9 -166,-495.4 -244,-574.9 -244,-909.9 -166,-988.9 	"/>
	<g>
		<linearGradient id="SVGID_3_" gradientUnits="userSpaceOnUse" x1="21.7442" y1="-502.9348" x2="27.7439" y2="-975.4112">
			<stop  offset="0" style="stop-color:#8D51A0"/>
			<stop  offset="0.25" style="stop-color:#DF4097"/>
			<stop  offset="0.5" style="stop-color:#EE3179"/>
			<stop  offset="0.75" style="stop-color:#F6884E"/>
			<stop  offset="1" style="stop-color:#FFC842"/>
		</linearGradient>
		<polygon class="st3" points="103.5,-1066.9 103,-730.9 -51.5,-574.4 -51.5,-910.4 		"/>
	</g>
</g>
<rect x="-622.4" y="180.1" class="st4" width="141" height="135"/>
<rect x="-626.9" y="372.1" class="st5" width="102" height="66"/>
<rect x="-653.9" y="522.1" class="st6" width="133.5" height="78"/>
<rect x="-430.4" y="426.1" class="st7" width="96" height="106.5"/>
<rect x="-371.9" y="229.6" class="st8" width="120" height="114"/>
</svg>
