<?xml version="1.0" encoding="utf-8"?>
<!-- Generator: Adobe Illustrator 22.0.1, SVG Export Plug-In . SVG Version: 6.00 Build 0)  -->
<svg version="1.1" id="Layer_1" xmlns="http://www.w3.org/2000/svg" xmlns:xlink="http://www.w3.org/1999/xlink" x="0px" y="0px"
	 viewBox="0 0 900 900" style="enable-background:new 0 0 900 900;" xml:space="preserve">
<style type="text/css">
	.st0{fill:#FFFFFF;}
</style>
<g>
	<path class="st0" d="M701.3,386.4v127.2h-2.9l-78-81.2v31.6c0,28.6-20.8,49.6-47.4,49.6c-18,0-33.3-9.6-41.3-24.6
		c-11.7,15-29.9,24.7-50.4,24.7c-6.7,0-13.1-1-19.2-3c-5.8-1.8-11.2-4.5-16.1-7.8c-1.1-0.7-2.2-1.5-3.2-2.3
		c-5.4-4.1-10.2-9.2-14-14.8c-0.1-0.1-0.1-0.1-0.2-0.2c0-0.1-0.1-0.1-0.1-0.2c-0.1-0.2-0.3-0.4-0.4-0.6c-0.2-0.3-0.4-0.7-0.6-1
		c-0.1-0.2-0.2-0.4-0.3-0.6c-0.1-0.2-0.2-0.3-0.3-0.5c-0.3-0.5-0.6-1-0.9-1.5c-1.3-2.3-2.4-4.7-3.4-7.1c-0.2-0.4-0.3-0.8-0.5-1.1
		c-0.5-1.3-0.9-2.5-1.4-3.9c-0.4-1.2-0.7-2.4-1-3.6c-1.2-4.9-1.9-9.9-1.9-15.1c0-7.2,1.2-14.1,3.4-20.6c1-3.1,2.3-6,3.8-8.9
		c0,0,0-0.1,0-0.1c0.2,0.2,0.4,0.4,0.6,0.6c0.1,0.1,0.3,0.2,0.4,0.3c1.2,1.1,2.3,2.2,3.3,3.4c0,0,0,0.1,0.1,0.1
		c4,4.4,7.1,9.5,9,15.2c-0.1,0.2-0.1,0.4-0.1,0.6c-0.6,2.9-0.9,6-0.9,9.1c0,14.1,6.8,27.6,18.3,35.8c1.1,0.8,2.1,1.5,3.3,2.1
		c3.9,2.3,8.2,4,12.7,5c0,0,0,0,0,0c3.1,0.7,6.3,1.1,9.7,1.1c3.8,0,7.6-0.5,11.1-1.4c0.4-0.1,0.8-0.2,1.2-0.3
		c0.5-0.1,0.9-0.3,1.4-0.4c10-3.2,18.4-9.9,23.9-18.6c0.3-0.5,0.6-0.9,0.8-1.4c0.2-0.3,0.4-0.6,0.5-1c0.3-0.5,0.6-1.1,0.8-1.6
		c0.5-1,1-2.1,1.4-3.2c1.8-4.5,2.8-9.3,3-14.3c0,0,0,0,0,0c0-0.5,0-1.1,0-1.6c0-0.8,0-1.6-0.1-2.4c-0.1-1.1-0.2-2.2-0.3-3.3
		c0-0.3-0.1-0.6-0.1-0.9c-0.1-0.4-0.1-0.8-0.2-1.3c-2.5-13.6-11.3-25.1-23.2-31.3c-0.6-0.3-1.3-0.7-2-1c-2.9-1.4-6-2.4-9.2-3.1
		c-0.4-0.1-0.8-0.2-1.2-0.2c-0.4-0.1-0.7-0.1-1.1-0.2c-1.2-0.2-2.4-0.3-3.7-0.4h0c0,0-0.1,0-0.1,0c0,0-0.1,0-0.1,0
		c-1-0.1-1.9-0.1-2.9-0.1c-7.4,0-14.4,1.8-20.5,5.1c-0.1-0.3-0.3-0.6-0.4-0.9c-2.4-5.2-5.9-9.9-10.1-13.7c-0.1-0.1-0.3-0.2-0.4-0.3
		c-0.2-0.2-0.4-0.4-0.6-0.6c-0.1,0-0.1-0.1-0.2-0.1c9.5-5.7,20.5-8.9,32.3-8.9c17.1,0,32.8,6.9,44.3,18.1v-18.1h19.7v77.4
		c0,17.3,12.2,29.9,27.5,29.9c15.3,0,27.7-12.6,27.7-29.9v-77.4h1l80,83.2v-83.2H701.3z"/>
	<path class="st0" d="M463.6,436.6c-0.3-2.1-0.8-4.2-1.3-6.2c-1.3-4.9-3-9.5-5.2-13.6c-0.1-0.3-0.3-0.5-0.4-0.8
		c-0.3-0.5-0.5-0.9-0.8-1.4c-0.1-0.1-0.1-0.2-0.2-0.4c-0.1-0.2-0.2-0.4-0.4-0.6c-3.3-5.5-7.5-10.2-12.4-14.1
		c-6.2-4.9-13.7-8.5-22.2-10.7c-6.3-1.6-13.1-2.4-20.4-2.4h-45.6v83.3l-79.4-83.3h-76.5v127.2h95v-81.4l77.6,81.4h2.8v0h26.1
		c8.9,0,17-1.2,24.3-3.6c4.7-1.5,9-3.5,13-5.9c-2.2-1.4-4.2-3-6.1-4.9c-3.2-3.1-5.8-6.7-7.8-10.7c-6.5,3.4-14.3,5.1-23.2,5.1h-26.1
		v-87.5h25.9c11.5,0,21.2,3,28.5,8.4c5.7,4.2,10,9.8,12.7,16.7c0.3,0.7,0.6,1.5,0.8,2.2c0.1,0.2,0.1,0.4,0.2,0.6
		c0.1,0.2,0.1,0.4,0.2,0.6c0.1,0.4,0.2,0.8,0.3,1.2c0.1,0.3,0.2,0.6,0.2,0.9c0,0.1,0,0.1,0.1,0.2c0,0,0,0,0,0c1,4,1.5,8.4,1.5,13
		c0,3-0.2,5.8-0.6,8.5c2.7,8.4,7.9,15.7,14.7,21.1c1.9-4.1,3.3-8.6,4.2-13.4c1-5,1.6-10.4,1.6-16.1
		C464.6,445.4,464.3,440.9,463.6,436.6z M274.3,493.7h-55.6v-35.2h29.2v-19.9h-29.2v-32.6h55.6V493.7z"/>
</g>
</svg>
